<svg width="125" height="51" viewBox="0 0 125 51" fill="none" xmlns="http://www.w3.org/2000/svg">
<path d="M20.0588 4.52856H12.9336V24H8.4585V4.52856H1.42847V0.894531H20.0588V4.52856ZM19.5536 15.2561C19.5536 14.0077 19.7334 12.8546 20.0931 11.7966C20.4528 10.7281 20.9818 9.80241 21.68 9.01953C22.3677 8.23665 23.2088 7.62305 24.2032 7.17871C25.2083 6.73438 26.3561 6.51221 27.6468 6.51221C28.9375 6.51221 30.0854 6.73438 31.0904 7.17871C32.0955 7.62305 32.9471 8.23665 33.6454 9.01953C34.333 9.80241 34.8567 10.7281 35.2164 11.7966C35.5761 12.8546 35.756 14.0077 35.756 15.2561V15.5894C35.756 16.8483 35.5761 18.012 35.2164 19.0806C34.8567 20.1385 34.333 21.0589 33.6454 21.8418C32.9577 22.6247 32.1113 23.2383 31.1063 23.6826C30.1013 24.1164 28.9587 24.3333 27.6786 24.3333C26.3879 24.3333 25.2347 24.1164 24.2191 23.6826C23.214 23.2383 22.3677 22.6247 21.68 21.8418C20.9818 21.0589 20.4528 20.1385 20.0931 19.0806C19.7334 18.012 19.5536 16.8483 19.5536 15.5894V15.2561ZM23.9652 15.5894C23.9652 16.3088 24.034 16.9858 24.1715 17.6206C24.309 18.2448 24.5259 18.7896 24.8221 19.2551C25.1183 19.7312 25.4992 20.1068 25.9647 20.3818C26.4408 20.6569 27.0121 20.7944 27.6786 20.7944C28.3239 20.7944 28.8793 20.6569 29.3448 20.3818C29.8103 20.1068 30.1912 19.7312 30.4874 19.2551C30.773 18.7896 30.9846 18.2448 31.1222 17.6206C31.2597 16.9858 31.3285 16.3088 31.3285 15.5894V15.2561C31.3285 14.5579 31.2597 13.8966 31.1222 13.2725C30.9846 12.6483 30.773 12.0981 30.4874 11.6221C30.1912 11.146 29.8103 10.7704 29.3448 10.4954C28.8793 10.2203 28.3133 10.0828 27.6468 10.0828C26.9909 10.0828 26.4302 10.2203 25.9647 10.4954C25.4992 10.7704 25.1183 11.146 24.8221 11.6221C24.5259 12.0981 24.309 12.6483 24.1715 13.2725C24.034 13.8966 23.9652 14.5579 23.9652 15.2561V15.5894ZM39.821 6.82959L39.9479 8.90845C40.2759 8.16789 40.7255 7.58602 41.2968 7.16284C41.8787 6.72909 42.5822 6.51221 43.4074 6.51221C43.8094 6.51221 44.1691 6.55981 44.4865 6.65503C44.8039 6.75024 45.079 6.89836 45.3117 7.09937C45.4916 7.24748 45.645 7.42733 45.7719 7.63892C45.9095 7.83993 46.0258 8.07267 46.121 8.33716C46.2692 8.08325 46.4331 7.85579 46.613 7.65479C46.8034 7.4432 47.0097 7.26335 47.2319 7.11523C47.5069 6.9248 47.819 6.77669 48.1682 6.6709C48.5173 6.5651 48.8981 6.51221 49.3107 6.51221C49.8291 6.51221 50.3105 6.60742 50.7548 6.79785C51.2097 6.98828 51.6065 7.28979 51.945 7.70239C52.273 8.12557 52.5269 8.67041 52.7067 9.33691C52.8972 9.99284 52.9924 10.7969 52.9924 11.749V24H48.9775V11.7332C48.9775 11.4052 48.9405 11.1354 48.8664 10.9238C48.8029 10.7122 48.713 10.543 48.5966 10.416C48.4803 10.2996 48.3427 10.2203 48.184 10.178C48.0359 10.1251 47.8825 10.0986 47.7238 10.0986C47.5546 10.0986 47.4012 10.1198 47.2636 10.1621C47.1367 10.2044 47.015 10.2626 46.8986 10.3367C46.8034 10.4107 46.7188 10.4954 46.6447 10.5906C46.5707 10.6752 46.5072 10.7757 46.4543 10.8921C46.4543 10.9132 46.4543 10.9609 46.4543 11.0349C46.4543 11.109 46.4543 11.2095 46.4543 11.3364V24H42.5664V11.7173C42.5664 11.3893 42.5346 11.1195 42.4711 10.908C42.4077 10.6964 42.323 10.5324 42.2172 10.416C42.1009 10.2996 41.9686 10.2203 41.8205 10.178C41.6724 10.1251 41.5137 10.0986 41.3444 10.0986C41.154 10.0986 40.9847 10.1304 40.8366 10.1938C40.6885 10.2573 40.5563 10.3472 40.4399 10.4636C40.3553 10.5483 40.2812 10.6488 40.2177 10.7651C40.1542 10.8815 40.0961 11.0085 40.0432 11.146V24H36.0283V6.82959H39.821ZM64.7222 24C64.6164 23.7884 64.5265 23.5451 64.4524 23.27C64.3784 22.995 64.3149 22.704 64.262 22.3972C64.0187 22.6617 63.7383 22.9103 63.4209 23.1431C63.1036 23.3758 62.7544 23.5768 62.3736 23.7461C61.9821 23.9259 61.5537 24.0635 61.0882 24.1587C60.6227 24.2645 60.1202 24.3174 59.5806 24.3174C58.7025 24.3174 57.8932 24.1904 57.1526 23.9365C56.4227 23.6826 55.7932 23.3282 55.2642 22.8733C54.7352 22.4184 54.3226 21.8788 54.0264 21.2546C53.7302 20.6199 53.5821 19.9322 53.5821 19.1917C53.5821 18.2395 53.7672 17.3984 54.1375 16.6685C54.5078 15.9279 55.0632 15.3196 55.8038 14.8435C56.4703 14.4097 57.2902 14.0818 58.2635 13.8596C59.2474 13.6269 60.3741 13.5105 61.6436 13.5105H64.1033V12.4949C64.1033 12.0929 64.0398 11.7332 63.9129 11.4158C63.7859 11.0878 63.5955 10.8075 63.3416 10.5747C63.0771 10.3314 62.7439 10.1462 62.3418 10.0193C61.9504 9.88175 61.4902 9.81299 60.9612 9.81299C60.4957 9.81299 60.0937 9.87118 59.7552 9.98755C59.4166 10.0933 59.1416 10.2467 58.93 10.4478C58.7396 10.6276 58.5967 10.8445 58.5015 11.0984C58.4169 11.3523 58.3746 11.6326 58.3746 11.9395H53.9629C53.9629 11.2095 54.1216 10.5165 54.439 9.8606C54.767 9.20467 55.2431 8.62809 55.8672 8.13086C56.4808 7.63363 57.232 7.24219 58.1207 6.95654C59.0199 6.66032 60.0461 6.51221 61.1993 6.51221C62.2361 6.51221 63.1988 6.63916 64.0875 6.89307C64.9867 7.14697 65.7643 7.52254 66.4202 8.01978C67.0761 8.51701 67.5892 9.14648 67.9595 9.9082C68.3298 10.6593 68.5149 11.5321 68.5149 12.5266V19.8899C68.5149 20.8103 68.5731 21.572 68.6895 22.175C68.8059 22.7781 68.9751 23.2965 69.1973 23.7302V24H64.7222ZM60.5169 20.9055C60.9612 20.9055 61.3738 20.8526 61.7547 20.7468C62.1355 20.641 62.4794 20.5035 62.7862 20.3342C63.093 20.165 63.3575 19.9745 63.5796 19.7629C63.8018 19.5408 63.9764 19.3186 64.1033 19.0964V16.1448H61.8499C61.1622 16.1448 60.5751 16.2135 60.0884 16.3511C59.6018 16.478 59.205 16.6579 58.8982 16.8906C58.5914 17.134 58.364 17.4249 58.2159 17.7634C58.0678 18.0914 57.9937 18.4511 57.9937 18.8425C57.9937 19.1493 58.0466 19.435 58.1524 19.6995C58.2688 19.9534 58.4327 20.1702 58.6443 20.3501C58.8559 20.5194 59.1151 20.6569 59.4219 20.7627C59.7393 20.8579 60.1043 20.9055 60.5169 20.9055ZM81.9904 19.2869C81.9904 19.0224 81.9269 18.7896 81.7999 18.5886C81.6836 18.3876 81.472 18.1972 81.1652 18.0173C80.8478 17.8481 80.4299 17.6894 79.9115 17.5413C79.3931 17.3931 78.7372 17.245 77.9437 17.0969C76.9387 16.8959 76.0183 16.6473 75.1825 16.3511C74.3573 16.0443 73.6485 15.674 73.0561 15.2402C72.4636 14.8171 71.9981 14.3251 71.6596 13.7644C71.3316 13.2037 71.1676 12.5583 71.1676 11.8284C71.1676 11.1195 71.3369 10.4425 71.6754 9.79712C72.014 9.15177 72.5006 8.58577 73.1354 8.09912C73.7702 7.61247 74.5425 7.22632 75.4523 6.94067C76.3621 6.65503 77.3883 6.51221 78.5309 6.51221C79.7264 6.51221 80.8002 6.65503 81.7523 6.94067C82.7045 7.21574 83.5138 7.5966 84.1803 8.08325C84.8362 8.58049 85.3388 9.16764 85.6879 9.84473C86.037 10.5218 86.2116 11.2571 86.2116 12.0505H81.7999C81.7999 11.7649 81.7523 11.5004 81.6571 11.2571C81.5619 11.0032 81.4191 10.7757 81.2287 10.5747C80.9642 10.3102 80.6045 10.0986 80.1496 9.93994C79.7052 9.78125 79.1657 9.7019 78.5309 9.7019C77.9914 9.7019 77.5206 9.7548 77.1186 9.8606C76.7165 9.96639 76.3886 10.1145 76.1347 10.3049C75.9019 10.4742 75.7221 10.6752 75.5951 10.908C75.4787 11.1301 75.4206 11.3682 75.4206 11.6221C75.4206 11.876 75.4735 12.114 75.5792 12.3362C75.685 12.5478 75.8755 12.7382 76.1505 12.9075C76.415 13.0873 76.78 13.2513 77.2455 13.3994C77.711 13.5369 78.3034 13.6586 79.0229 13.7644C80.0596 13.9337 81.0224 14.1506 81.911 14.415C82.7997 14.6795 83.5667 15.0181 84.2121 15.4307C84.8574 15.8538 85.3599 16.3669 85.7196 16.97C86.0899 17.5624 86.275 18.2712 86.275 19.0964C86.275 19.8582 86.0899 20.5617 85.7196 21.207C85.3599 21.8418 84.8468 22.3919 84.1803 22.8574C83.5032 23.3229 82.6886 23.6879 81.7365 23.9524C80.7843 24.2063 79.7211 24.3333 78.5468 24.3333C77.2561 24.3333 76.1135 24.164 75.119 23.8254C74.1352 23.4869 73.31 23.0426 72.6435 22.4924C71.977 21.9529 71.4691 21.3393 71.12 20.6516C70.7815 19.9534 70.6122 19.2551 70.6122 18.5569H74.8175C74.8493 19.0224 74.9762 19.4244 75.1984 19.7629C75.4206 20.0909 75.7062 20.3554 76.0553 20.5564C76.4044 20.768 76.8012 20.9214 77.2455 21.0166C77.7004 21.1118 78.1659 21.1594 78.642 21.1594C79.2133 21.1594 79.7105 21.1118 80.1337 21.0166C80.5674 20.9108 80.9219 20.7733 81.1969 20.604C81.4614 20.4347 81.6571 20.239 81.7841 20.0168C81.9216 19.7947 81.9904 19.5514 81.9904 19.2869Z" fill="#EEEEEE"/>
<path fill-rule="evenodd" clip-rule="evenodd" d="M11.0905 43.6862L14.5 50L17.9095 43.6862L24.76 31L28 25H21.1811H7.81891H1L4.24 31L11.0905 43.6862ZM11.0589 31L14.5 37.3724L17.9411 31H11.0589ZM34.7588 32.8296H25.4119V36.4319H30.2996V46.4136H25.4119V50H39.4084V46.4136H34.7588V32.8296ZM30.1567 27.4976C30.0404 27.7832 29.9822 28.0953 29.9822 28.4338C29.9822 28.7724 30.0404 29.0898 30.1567 29.386C30.2837 29.6716 30.4583 29.915 30.6804 30.116C30.9026 30.3276 31.1671 30.4915 31.4739 30.6079C31.7913 30.7243 32.1404 30.7825 32.5212 30.7825C33.3041 30.7825 33.923 30.5656 34.3779 30.1318C34.8434 29.6875 35.0762 29.1215 35.0762 28.4338C35.0762 27.7462 34.8434 27.1855 34.3779 26.7517C33.923 26.3074 33.3041 26.0852 32.5212 26.0852C32.1404 26.0852 31.7913 26.1434 31.4739 26.2598C31.1671 26.3761 30.9026 26.5348 30.6804 26.7358C30.4583 26.9474 30.2837 27.2013 30.1567 27.4976ZM51.6778 25.625H42.077V29.2273H47.2186V46.4136H42.077V50H56.5973V46.4136H51.6778V25.625ZM68.5334 49.27C68.6075 49.5451 68.6974 49.7884 68.8032 50H73.2783V49.7302C73.0561 49.2965 72.8868 48.7781 72.7705 48.175C72.6541 47.572 72.5959 46.8103 72.5959 45.8899V38.5266C72.5959 37.5321 72.4108 36.6593 72.0405 35.9082C71.6702 35.1465 71.1571 34.517 70.5012 34.0198C69.8452 33.5225 69.0677 33.147 68.1684 32.8931C67.2797 32.6392 66.317 32.5122 65.2802 32.5122C64.1271 32.5122 63.1009 32.6603 62.2016 32.9565C61.3129 33.2422 60.5618 33.6336 59.9482 34.1309C59.324 34.6281 58.8479 35.2047 58.52 35.8606C58.2026 36.5165 58.0439 37.2095 58.0439 37.9395H62.4555C62.4555 37.6326 62.4978 37.3523 62.5825 37.0984C62.6777 36.8445 62.8205 36.6276 63.0109 36.4478C63.2225 36.2467 63.4976 36.0933 63.8361 35.9875C64.1747 35.8712 64.5767 35.813 65.0422 35.813C65.5712 35.813 66.0314 35.8818 66.4228 36.0193C66.8248 36.1462 67.1581 36.3314 67.4226 36.5747C67.6765 36.8075 67.8669 37.0878 67.9939 37.4158C68.1208 37.7332 68.1843 38.0929 68.1843 38.4949V39.5105H65.7246C64.455 39.5105 63.3283 39.6269 62.3444 39.8596C61.3711 40.0818 60.5512 40.4097 59.8847 40.8435C59.1442 41.3196 58.5887 41.9279 58.2185 42.6685C57.8482 43.3984 57.663 44.2395 57.663 45.1917C57.663 45.9322 57.8111 46.6199 58.1074 47.2546C58.4036 47.8788 58.8162 48.4184 59.3452 48.8733C59.8741 49.3282 60.5036 49.6826 61.2336 49.9365C61.9742 50.1904 62.7835 50.3174 63.6616 50.3174C64.2011 50.3174 64.7036 50.2645 65.1691 50.1587C65.6346 50.0635 66.0631 49.9259 66.4545 49.7461C66.8354 49.5768 67.1845 49.3758 67.5019 49.1431C67.8193 48.9103 68.0996 48.6617 68.343 48.3972C68.3959 48.704 68.4593 48.995 68.5334 49.27ZM65.8356 46.7468C65.4548 46.8526 65.0422 46.9055 64.5979 46.9055C64.1853 46.9055 63.8203 46.8579 63.5029 46.7627C63.1961 46.6569 62.9369 46.5194 62.7253 46.3501C62.5137 46.1702 62.3497 45.9534 62.2333 45.6995C62.1276 45.435 62.0747 45.1493 62.0747 44.8425C62.0747 44.4511 62.1487 44.0914 62.2968 43.7634C62.4449 43.4249 62.6724 43.134 62.9792 42.8906C63.286 42.6579 63.6827 42.478 64.1694 42.3511C64.656 42.2135 65.2432 42.1448 65.9309 42.1448H68.1843V45.0964C68.0573 45.3186 67.8828 45.5408 67.6606 45.7629C67.4384 45.9745 67.1739 46.165 66.8671 46.3342C66.5603 46.5035 66.2165 46.641 65.8356 46.7468ZM85.5159 25.625H75.9151V29.2273H81.0567V46.4136H75.9151V50H90.4353V46.4136H85.5159V25.625ZM100.007 32.8296V28.6243H95.5954V32.8296H91.6757V36.0828H95.5954V43.8904C95.5954 45.0224 95.7435 45.9957 96.0397 46.8103C96.3359 47.6143 96.7591 48.2756 97.3092 48.7939C97.8488 49.3229 98.4994 49.7144 99.2611 49.9683C100.033 50.2116 100.89 50.3333 101.832 50.3333C102.319 50.3333 102.811 50.3068 103.308 50.2539C103.816 50.2116 104.302 50.1481 104.768 50.0635C105.233 49.9788 105.672 49.873 106.085 49.7461C106.497 49.6086 106.857 49.4499 107.164 49.27L106.735 46.239C106.534 46.2919 106.291 46.3448 106.006 46.3977C105.73 46.4506 105.434 46.4982 105.117 46.5405C104.789 46.5934 104.445 46.6357 104.085 46.6675C103.736 46.6992 103.392 46.7151 103.054 46.7151C102.588 46.7151 102.165 46.6622 101.784 46.5564C101.414 46.4506 101.097 46.2708 100.832 46.0168C100.568 45.7735 100.361 45.4456 100.213 45.033C100.076 44.6098 100.007 44.0861 100.007 43.4619V36.0828H106.418V32.8296H100.007ZM119.291 49.27C119.365 49.5451 119.455 49.7884 119.56 50H124.035V49.7302C123.813 49.2965 123.644 48.7781 123.528 48.175C123.411 47.572 123.353 46.8103 123.353 45.8899V38.5266C123.353 37.5321 123.168 36.6593 122.798 35.9082C122.427 35.1465 121.914 34.517 121.258 34.0198C120.602 33.5225 119.825 33.147 118.926 32.8931C118.037 32.6392 117.074 32.5122 116.037 32.5122C114.884 32.5122 113.858 32.6603 112.959 32.9565C112.07 33.2422 111.319 33.6336 110.705 34.1309C110.081 34.6281 109.605 35.2047 109.277 35.8606C108.96 36.5165 108.801 37.2095 108.801 37.9395H113.213C113.213 37.6326 113.255 37.3523 113.34 37.0984C113.435 36.8445 113.578 36.6276 113.768 36.4478C113.98 36.2467 114.255 36.0933 114.593 35.9875C114.932 35.8712 115.334 35.813 115.799 35.813C116.328 35.813 116.788 35.8818 117.18 36.0193C117.582 36.1462 117.915 36.3314 118.18 36.5747C118.434 36.8075 118.624 37.0878 118.751 37.4158C118.878 37.7332 118.941 38.0929 118.941 38.4949V39.5105H116.482C115.212 39.5105 114.085 39.6269 113.102 39.8596C112.128 40.0818 111.308 40.4097 110.642 40.8435C109.901 41.3196 109.346 41.9279 108.976 42.6685C108.605 43.3984 108.42 44.2395 108.42 45.1917C108.42 45.9322 108.568 46.6199 108.865 47.2546C109.161 47.8788 109.573 48.4184 110.102 48.8733C110.631 49.3282 111.261 49.6826 111.991 49.9365C112.731 50.1904 113.541 50.3174 114.419 50.3174C114.958 50.3174 115.461 50.2645 115.926 50.1587C116.392 50.0635 116.82 49.9259 117.212 49.7461C117.593 49.5768 117.942 49.3758 118.259 49.1431C118.576 48.9103 118.857 48.6617 119.1 48.3972C119.153 48.704 119.216 48.995 119.291 49.27ZM116.593 46.7468C116.212 46.8526 115.799 46.9055 115.355 46.9055C114.942 46.9055 114.577 46.8579 114.26 46.7627C113.953 46.6569 113.694 46.5194 113.482 46.3501C113.271 46.1702 113.107 45.9534 112.99 45.6995C112.885 45.435 112.832 45.1493 112.832 44.8425C112.832 44.4511 112.906 44.0914 113.054 43.7634C113.202 43.4249 113.43 43.134 113.736 42.8906C114.043 42.6579 114.44 42.478 114.927 42.3511C115.413 42.2135 116 42.1448 116.688 42.1448H118.941V45.0964C118.814 45.3186 118.64 45.5408 118.418 45.7629C118.196 45.9745 117.931 46.165 117.624 46.3342C117.317 46.5035 116.974 46.641 116.593 46.7468Z" fill="url(#paint0_linear_29_8)"/>
<defs>
<linearGradient id="paint0_linear_29_8" x1="9.64" y1="40.2174" x2="166.481" y2="43.4296" gradientUnits="userSpaceOnUse">
<stop stop-color="#FF993A"/>
<stop offset="1" stop-color="#93EE1F"/>
</linearGradient>
</defs>
</svg>
